<?xml version="1.0" encoding="iso-8859-1"?>
<!-- Generator: Adobe Illustrator 19.0.0, SVG Export Plug-In . SVG Version: 6.00 Build 0)  -->
<svg version="1.1" id="Capa_1" xmlns="http://www.w3.org/2000/svg" xmlns:xlink="http://www.w3.org/1999/xlink" x="0px" y="0px"
	 viewBox="0 0 512 512" style="enable-background:new 0 0 512 512;" xml:space="preserve">
<path style="fill:#343a40;" d="M376,0c-33.34,0-62.988,22.368-72.129,54.39c-2.271,7.969,2.344,16.274,10.313,18.545l63.882,63.882
	c1.89,6.592,7.896,10.884,14.414,10.884c1.362,0,2.754-0.19,4.131-0.571C428.632,137.988,451,108.34,451,75
	C451,33.647,417.353,0,376,0z"/>
<path style="fill:#343a40;" d="M512,497c0,8.399-6.599,15-15,15H15c-8.401,0-15-6.601-15-15c0-57.9,47.1-107,105-107h301
	C463.9,390,512,439.1,512,497z"/>
<path style="fill:#343a40;" d="M512,497c0,8.399-6.599,15-15,15H256V390h150C463.9,390,512,439.1,512,497z"/>
<path style="fill:#343a40;" d="M106,300H91c-33.091,0-60-26.909-60-60s26.909-60,60-60h15c8.291,0,15,6.709,15,15v90
	C121,293.291,114.291,300,106,300z"/>
<path style="fill:#343a40;" d="M421,300h-15c-8.291,0-15-6.709-15-15v-90c0-8.291,6.709-15,15-15h15c33.091,0,60,26.909,60,60
	S454.091,300,421,300z M421,270h0.293H421z"/>
<path style="fill:#343a40;" d="M421,234.3V285c0,91.199-73.801,165-165,165S91,376.199,91,285v-50.7l28.5-2.701L99.699,210L136,120
	h240l36.301,90L392.5,231.599L421,234.3z"/>
<path style="fill:#343a40;" d="M421,234.3V285c0,91.199-73.801,165-165,165V120h120l36.301,90L392.5,231.599L421,234.3z"/>
<path style="fill:#343a40;" d="M421,195v5.7l-8.699,9.3H376c-52.2,0-97.5-29.7-120-73.2c-22.5,43.5-67.8,73.2-120,73.2H99.699
	L91,200.7V195c0-91.201,73.801-165,165-165S421,103.799,421,195z"/>
<path style="fill:#343a40;" d="M421,195v5.7l-8.699,9.3H376c-52.2,0-97.5-29.7-120-73.2V30C347.199,30,421,103.799,421,195z"/>
<path style="fill:#343a40;" d="M325.901,363.3C306.7,380.4,281.8,390,256,390s-50.7-9.6-69.901-26.7
	c-6.299-5.7-6.899-15-1.199-21.301c5.4-6.299,15-6.599,21-1.199c13.799,12.599,32.1,18.6,50.099,18.6s36.301-6,50.099-18.6
	c6-5.4,15.601-5.099,21,1.199C332.8,348.3,332.199,357.599,325.901,363.3z"/>
<g>
	<path style="fill:#343a40;" d="M301,255c0,8.399-6.599,15-15,15h-60c-8.401,0-15-6.601-15-15c0-8.401,6.599-15,15-15h60
		C294.401,240,301,246.599,301,255z"/>
	<path style="fill:#343a40;" d="M165.985,270c5.508,0,10.796-3.032,13.433-8.291c3.706-7.412,0.703-16.421-6.709-20.127L91,200.728
		v33.545l68.291,34.146C161.444,269.487,163.729,270,165.985,270z"/>
</g>
<g>
	<path style="fill:#343a40;" d="M339.291,241.582c-7.412,3.706-10.415,12.715-6.709,20.127c2.637,5.259,7.925,8.291,13.433,8.291
		c2.256,0,4.541-0.513,6.694-1.582L421,234.272v-33.545L339.291,241.582z"/>
	<path style="fill:#343a40;" d="M286,270h-30v-30h30c8.401,0,15,6.599,15,15C301,263.399,294.401,270,286,270z"/>
</g>
<path style="fill:#343a40;" d="M325.901,363.3C306.7,380.4,281.8,390,256,390v-30.601c17.999,0,36.301-6,50.099-18.6
	c6-5.4,15.601-5.099,21,1.199C332.8,348.3,332.199,357.599,325.901,363.3z"/>
<path style="fill:#343a40;" d="M196,300c-24.814,0-45-20.186-45-45s20.186-45,45-45s45,20.186,45,45S220.814,300,196,300z"/>
<path style="fill:#343a40;" d="M316,300c-24.814,0-45-20.186-45-45s20.186-45,45-45s45,20.186,45,45S340.814,300,316,300z"/>
<path style="fill:#343a40;" d="M316,270L316,270c-8.284,0-15-6.716-15-15l0,0c0-8.284,6.716-15,15-15l0,0c8.284,0,15,6.716,15,15
	l0,0C331,263.284,324.284,270,316,270z"/>
<path style="fill:#343a40;" d="M196,270L196,270c-8.284,0-15-6.716-15-15l0,0c0-8.284,6.716-15,15-15l0,0c8.284,0,15,6.716,15,15
	l0,0C211,263.284,204.284,270,196,270z"/>
<g>
</g>
<g>
</g>
<g>
</g>
<g>
</g>
<g>
</g>
<g>
</g>
<g>
</g>
<g>
</g>
<g>
</g>
<g>
</g>
<g>
</g>
<g>
</g>
<g>
</g>
<g>
</g>
<g>
</g>
</svg>
